<?xml version="1.0" standalone="no"?>
<!DOCTYPE svg PUBLIC "-//W3C//DTD SVG 1.1//EN" "http://www.w3.org/Graphics/SVG/1.1/DTD/svg11.dtd" >
<svg xmlns="http://www.w3.org/2000/svg">
<metadata>
This is a custom SVG webfont generated by Font Squirrel.
Copyright   : Copyright c Thirstype Inc 2003 All rights reserved
</metadata>
<defs>
<font id="webfontW6eqRUXD" horiz-adv-x="1228" >
<font-face units-per-em="2048" ascent="1536" descent="-512" />
<missing-glyph horiz-adv-x="409" />
<glyph unicode=" "  horiz-adv-x="409" />
<glyph unicode="&#x09;" horiz-adv-x="409" />
<glyph unicode="&#xa0;" horiz-adv-x="409" />
<glyph unicode="!" horiz-adv-x="450" d="M164 51q0 25 17.5 43.5t43.5 18.5q25 0 43.5 -18.5t18.5 -43.5q0 -27 -18.5 -44t-43.5 -17q-27 0 -44 17t-17 44zM180 1536h90l-28 -1106h-33z" />
<glyph unicode="&#x22;" horiz-adv-x="675" d="M164 1536h102l-33 -512h-36zM410 1536h102l-33 -512h-37z" />
<glyph unicode="#" horiz-adv-x="1198" d="M39 274h197l-103 -274h62l104 274h420l-105 -274h64l102 274h201l18 58h-196l137 360h201l18 58h-198l104 274h-61l-105 -274h-420l105 274h-64l-104 -274h-199l-18 -58h194l-135 -360h-201zM319 332l138 360h420l-138 -360h-420z" />
<glyph unicode="$" d="M145 1001q0 -141 121 -188q78 -31 334 -53h2h2h2l2 -2h2h2h2h2h2l123 -12q33 -3 94.5 -13t83 -22.5t52 -35t40 -56t9.5 -78.5q0 -127 -109.5 -183.5t-343.5 -56.5q-113 0 -237.5 20.5t-177.5 40.5v-55q90 -39 307 -57l-92 -250h57l84 246h59q268 0 392 73.5t124 223.5 q0 66 -20.5 111.5t-52 73.5t-97 45.5t-127 24.5t-170.5 15q-88 6 -122.5 9t-97 11.5t-86 19.5t-54.5 30.5t-41 49.5t-10 68q0 133 101.5 183.5t332.5 50.5q113 0 237.5 -20.5t178.5 -40.5v55q-94 37 -281 53l92 254h-57l-86 -250q-57 4 -84 4q-254 0 -374 -68.5t-120 -220.5 z" />
<glyph unicode="%" horiz-adv-x="1886" d="M123 1159q0 -205 82 -297t260 -92t259 92t81 297q0 203 -82 295t-258 92q-178 0 -260 -92t-82 -295zM186 1159q0 178 68 255t211 77q141 0 208.5 -77t67.5 -255t-67.5 -256t-208.5 -78q-143 0 -211 78t-68 256zM362 0l1086 1536h76l-1086 -1536h-76zM1081 377 q0 -203 82 -295t258 -92q178 0 260 92t82 295q0 205 -82 297t-260 92t-259 -92t-81 -297zM1145 377q0 178 67.5 256t208.5 78q143 0 211 -78t68 -256t-67.5 -255t-211.5 -77q-141 0 -208.5 77t-67.5 255z" />
<glyph unicode="&#x26;" horiz-adv-x="1505" d="M100 469q0 -479 580 -479q195 0 364 76q176 -76 381 -76v55q-160 0 -315 55q283 166 283 490q0 225 -103.5 334.5t-285.5 109.5q-162 0 -267 -35v-57q127 37 267 37q330 0 329 -389q0 -317 -286 -463q-190 88 -340 268t-227 391t-77 416q0 295 287 295q137 0 186.5 -48 t49.5 -130q0 -66 -19 -111h54q20 47 20 111q0 227 -291 227q-98 0 -168.5 -29.5t-107.5 -81t-52.5 -106.5t-15.5 -119q0 -158 43 -323q-121 -47 -205 -153.5t-84 -264.5zM160 469q0 143 71.5 232.5t174.5 129.5q72 -238 219 -432t354 -301q-139 -53 -299 -53 q-240 0 -380 103.5t-140 320.5z" />
<glyph unicode="'" horiz-adv-x="430" d="M164 1536h102l-33 -512h-36z" />
<glyph unicode="(" horiz-adv-x="559" d="M133 624.5q0 350.5 79 627t177 419.5h68q-98 -143 -178 -419.5t-80 -627t79.5 -627t178.5 -419.5h-68q-98 143 -177 419.5t-79 627z" />
<glyph unicode=")" horiz-adv-x="559" d="M102 -422h68q98 143 177 419.5t79 627t-79 627t-177 419.5h-68q98 -143 178 -419.5t80 -627t-80 -627t-178 -419.5z" />
<glyph unicode="*" horiz-adv-x="788" d="M29 1247l254 -53l4 14l-236 105zM150 881l57 -41l129 225l-12 8zM360 1536l27 -258h16l27 258h-70zM457 1065l129 -225l57 41l-174 192zM504 1208l4 -14l254 53l-21 68z" />
<glyph unicode="+" horiz-adv-x="1064" d="M133 670h371v-371h57v371h371v57h-371v371h-57v-371h-371v-57z" />
<glyph unicode="," horiz-adv-x="450" d="M147 -233l52 229q-35 12 -35 55q0 27 17.5 44.5t44 17.5t44 -17.5t17.5 -44.5q0 -16 -6 -28l-119 -256h-15z" />
<glyph unicode="-" horiz-adv-x="757" d="M145 670h467v57h-467v-57z" />
<glyph unicode="." horiz-adv-x="450" d="M164 51q0 25 17.5 43.5t43.5 18.5q25 0 43.5 -18.5t18.5 -43.5q0 -27 -18.5 -44t-43.5 -17q-27 0 -44 17t-17 44z" />
<glyph unicode="/" horiz-adv-x="860" d="M41 -422l711 2093h67l-710 -2093h-68z" />
<glyph unicode="0" d="M154 770q0 -133 5 -225t21.5 -188.5t49 -157t85 -111.5t131 -74.5t185.5 -23.5q129 0 218 38t140 97t79 165.5t36 212t8 267.5q0 160 -8 264.5t-36 211t-79 165.5t-140 97t-218 38q-106 0 -185 -23.5t-131.5 -73.5t-85 -111.5t-49 -158t-21.5 -187.5t-5 -222zM219 770 q0 125 4 206t17.5 172t40 145.5t71.5 102.5t115 69.5t164 21.5q113 0 190.5 -35t121.5 -90t67.5 -154.5t30 -193.5t6.5 -244q0 -152 -6.5 -246t-30 -194.5t-67.5 -155.5t-122 -90t-190 -35q-94 0 -164 21.5t-115 69.5t-71.5 103.5t-40 146.5t-17.5 172t-4 208z" />
<glyph unicode="1" d="M203 1403l379 53v-1399h-306v-57h666v57h-283v1489h-30l-426 -121v-22z" />
<glyph unicode="2" d="M16 0h959v57h-873l686 738q104 113 149.5 191.5t45.5 182.5q0 379 -481 379q-225 0 -359 -53v-57q164 53 361 53q238 0 327 -82t89 -240q0 -145 -127 -280l-777 -852v-37z" />
<glyph unicode="3" horiz-adv-x="1095" d="M143 45q129 -55 320 -55q270 0 391 117.5t121 312.5q0 100 -32 181t-116 139.5t-213 60.5q152 16 229 120.5t77 235.5q0 389 -471 389q-143 0 -306 -51v-57q182 53 306 53q229 0 318 -88t89 -246q0 -139 -91 -235.5t-288 -96.5h-135v-57h135q229 0 331.5 -80t102.5 -268 q0 -375 -448 -375q-162 0 -320 55v-55z" />
<glyph unicode="4" d="M115 512h727v-512h61v512h232v49h-232v985h-35l-753 -997v-37zM193 561l649 858v-858h-649z" />
<glyph unicode="5" horiz-adv-x="1085" d="M131 45q123 -55 305 -55q569 0 570 495q0 113 -28 194t-71 127t-112.5 72.5t-136 35t-156.5 8.5q-125 0 -256 -9v574h725v49h-787v-674h267q68 0 105.5 -1t96 -8t92 -21.5t75.5 -42t63.5 -66.5t37 -99.5t15.5 -138.5q0 -440 -498 -440q-145 0 -307 61v-61z" />
<glyph unicode="6" horiz-adv-x="1239" d="M141 729q0 -367 60 -514q90 -225 444 -225q117 0 203 27.5t137 72.5t82 111.5t41 132t10 145.5q0 84 -8 147.5t-38 133t-79 114t-138 73t-210 28.5q-164 0 -293 -85t-151 -233v103q0 174 21.5 299t75.5 227.5t154.5 153.5t249.5 51q197 0 363 -57v57q-147 55 -363 55 q-168 0 -280.5 -53t-173 -164.5t-84 -253t-23.5 -346.5zM213 479q0 59 10 115.5t40 117t76 105.5t125 74t181 29q129 0 214 -34t126 -99.5t55.5 -136t14.5 -171.5q0 -96 -17.5 -168.5t-60.5 -136t-126 -96.5t-206 -33q-131 0 -220 33t-133 96.5t-61.5 135t-17.5 169.5z" />
<glyph unicode="7" horiz-adv-x="952" d="M61 1487h775l-621 -1487h80l596 1483v53h-830v-49z" />
<glyph unicode="8" d="M98 403q0 186 93.5 287t250.5 113q-289 59 -288 354q0 190 106.5 289.5t354 99.5t354 -99t106.5 -290q0 -295 -289 -354q158 -12 251 -112.5t93 -287.5q0 -201 -120.5 -307t-395 -106t-395.5 106t-121 307zM162 403q0 -358 452.5 -358t452.5 358q0 199 -110.5 283 t-342 84t-342 -84t-110.5 -283zM217 1157q0 -332 397.5 -332t397.5 332q0 162 -87 248t-310.5 86t-310.5 -86t-87 -248z" />
<glyph unicode="9" horiz-adv-x="1239" d="M143 1057q0 -84 8.5 -147.5t38 -133t78.5 -114t138.5 -73t209.5 -28.5q164 0 293 85t152 233v-103q0 -174 -21.5 -299t-76 -227.5t-154.5 -153.5t-250 -51q-197 0 -362 57v-57q147 -55 362 -55q168 0 280.5 53t173 164.5t84 253t23.5 346.5q0 367 -59 514 q-90 225 -445 225q-117 0 -202.5 -27.5t-137 -72.5t-82 -111.5t-41 -132t-10.5 -145.5zM207 1057q0 96 17.5 168.5t60.5 136t126 96.5t205 33q131 0 220.5 -33t133.5 -96.5t61.5 -135t17.5 -169.5q0 -59 -10.5 -115.5t-40 -117t-75.5 -105.5t-125 -74t-182 -29 q-129 0 -214 34t-125.5 99.5t-55 136.5t-14.5 171z" />
<glyph unicode=":" horiz-adv-x="450" d="M164 51q0 25 17.5 43.5t43.5 18.5q25 0 43.5 -18.5t18.5 -43.5q0 -27 -18.5 -44t-43.5 -17q-27 0 -44 17t-17 44zM164 768q0 25 17.5 43t43.5 18q25 0 43.5 -18t18.5 -43q0 -27 -18.5 -44t-43.5 -17q-27 0 -44 17t-17 44z" />
<glyph unicode=";" horiz-adv-x="450" d="M147 -233l52 229q-35 12 -35 55q0 27 17.5 44.5t44 17.5t44 -17.5t17.5 -44.5q0 -16 -6 -28l-119 -256h-15zM164 768q0 25 17.5 43t43.5 18q25 0 43.5 -18t18.5 -43q0 -27 -18.5 -44t-43.5 -17q-27 0 -44 17t-17 44z" />
<glyph unicode="&#x3c;" horiz-adv-x="747" d="M145 670l457 -332v51l-401 309l401 310v51l-457 -332v-57z" />
<glyph unicode="=" horiz-adv-x="1064" d="M133 524h799v58h-799v-58zM133 815h799v57h-799v-57z" />
<glyph unicode="&#x3e;" horiz-adv-x="747" d="M145 338v51l402 309l-402 310v51l457 -332v-57z" />
<glyph unicode="?" horiz-adv-x="1024" d="M92 1446q160 45 299 45q254 0 346 -90t92 -252q0 -51 -8 -92t-17 -71t-31.5 -55.5t-37 -39.5t-50.5 -31.5l-52.5 -25t-60.5 -22.5t-60 -21q-119 -45 -167 -110t-48 -165q0 -35 10 -86h27q0 70 3 104.5t20.5 74.5t54.5 66.5t100 53.5l66 26l63 24q18 7 53 23.5t50 27.5 l42 31q27 19 38 38l28 45q16 27 22.5 56.5t11.5 67.5t5 83q0 86 -18.5 149.5t-68.5 123t-154.5 91t-260.5 31.5q-176 0 -297 -45v-55zM303 51q0 25 17.5 43.5t44.5 18.5q25 0 43 -18.5t18 -43.5q0 -27 -18.5 -44t-42.5 -17q-27 0 -44.5 17t-17.5 44z" />
<glyph unicode="@" horiz-adv-x="2129" d="M88 512q0 154 15.5 275.5t54.5 244.5t110.5 212t179 160t268.5 106.5t367 35.5q211 0 367 -21.5t264.5 -70.5t176 -112.5t104.5 -165t50 -211t13 -265.5q0 -385 -116.5 -542.5t-446.5 -157.5h-72l-28 80q-137 -90 -359 -90q-123 0 -209 39t-131 112.5t-64.5 162.5 t-19.5 208t19.5 208t64.5 162.5t131 112.5t209 39q221 0 359 -90l28 80h27v-975q172 0 278.5 33t166 117t80 197.5t20.5 303.5q0 127 -8.5 216.5t-31 177.5t-63.5 146t-107.5 109.5t-163.5 79t-230.5 44t-307.5 16.5q-238 0 -408.5 -52.5t-271 -135t-158 -215t-75.5 -264.5 t-18 -310q0 -125 9 -224.5t33.5 -203.5t67.5 -182t113.5 -149.5t167 -118t233.5 -73t307 -26.5q356 0 564 74l2 -66q-207 -66 -566 -65q-178 0 -322.5 27.5t-247.5 76.5t-179 124t-123 159t-74.5 193.5t-38 216t-10.5 237.5zM676 512q0 -96 14.5 -172t51 -146.5 t111.5 -109.5t183 -39q213 0 353 86v762q-139 86 -353 86q-109 0 -183.5 -39t-111 -109.5t-51 -146.5t-14.5 -172z" />
<glyph unicode="A" horiz-adv-x="1294" d="M82 0l543 1546h45l542 -1546h-75l-154 444h-674l-151 -444h-76zM328 502h637l-318 930z" />
<glyph unicode="B" horiz-adv-x="1267" d="M174 0h483q262 0 380 111.5t118 302.5q0 172 -89 279.5t-261 107.5q137 12 217 110.5t80 239.5q0 385 -461 385h-467v-1536zM240 59v709h436q225 0 319.5 -82t94.5 -272q0 -160 -91.5 -257.5t-326.5 -97.5h-432zM240 825v652h419q219 0 298 -88.5t79 -237.5 q0 -141 -83 -233.5t-277 -92.5h-436z" />
<glyph unicode="C" horiz-adv-x="1257" d="M143 768q0 -391 134.5 -584.5t459.5 -193.5q229 0 377 59v64q-172 -63 -377 -64q-281 0 -404.5 175t-123.5 544t124 544t404 175q205 0 377 -64v64q-147 59 -377 59q-326 0 -460 -193.5t-134 -584.5z" />
<glyph unicode="D" horiz-adv-x="1351" d="M174 0h444q178 0 296 50t181.5 155.5t88 237.5t24.5 325t-24.5 325t-88 237.5t-181 155.5t-296.5 50h-444v-1536zM240 59v1418h368q307 0 420 -167t113 -542t-113 -542t-420 -167h-368z" />
<glyph unicode="E" horiz-adv-x="1169" d="M174 0h852v59h-786v709h710v57h-710v652h786v59h-852v-1536z" />
<glyph unicode="F" horiz-adv-x="1128" d="M174 0h66v768h690v57h-690v652h766v59h-832v-1536z" />
<glyph unicode="G" horiz-adv-x="1363" d="M143 768q0 -391 134.5 -584.5t459.5 -193.5q262 0 453 80v698h-399v-57h333v-594q-141 -68 -387 -68q-281 0 -404.5 175t-123.5 544t124 544t404 175q219 0 410 -78v64q-160 74 -410 73q-326 0 -460 -193.5t-134 -584.5z" />
<glyph unicode="H" horiz-adv-x="1359" d="M174 0h66v768h880v-768h66v1536h-66v-711h-880v711h-66v-1536z" />
<glyph unicode="I" horiz-adv-x="503" d="M219 0h66v1536h-66v-1536z" />
<glyph unicode="J" horiz-adv-x="780" d="M92 -4q49 -6 109 -6q344 0 344 280v1266h-66v-1270q0 -121 -71.5 -171t-206.5 -50q-72 0 -109 6v-55z" />
<glyph unicode="K" horiz-adv-x="1183" d="M174 0h59v596l187 215l622 -811h80l-665 854l594 682h-82l-736 -858v858h-59v-1536z" />
<glyph unicode="L" horiz-adv-x="1083" d="M174 0h807v59h-743v1477h-64v-1536z" />
<glyph unicode="M" horiz-adv-x="1597" d="M174 0v1536h43l582 -1251l581 1251h43v-1536h-67l2 1331l-529 -1120h-61l-528 1120l2 -1331h-68z" />
<glyph unicode="N" horiz-adv-x="1380" d="M174 0h68l-4 1393l927 -1393h41v1536h-67l4 -1393l-928 1393h-41v-1536z" />
<glyph unicode="O" horiz-adv-x="1409" d="M143 768q0 -195 19.5 -322t77 -238.5t172 -164.5t293.5 -53q143 0 246.5 38t164 100t94 165.5t45 212t11.5 262.5t-11.5 262.5t-45 212t-94 165.5t-164 100t-246.5 38q-178 0 -293 -53t-172.5 -164.5t-77 -238.5t-19.5 -322zM209 768q0 190 18.5 313t70.5 220.5 t151.5 141.5t255 44t255 -44t151.5 -141.5t70.5 -220.5t18.5 -313t-18.5 -313t-70.5 -220.5t-151.5 -141.5t-255 -44t-255 44t-151.5 141.5t-70.5 220.5t-18.5 313z" />
<glyph unicode="P" horiz-adv-x="1214" d="M174 0h66v649h413q469 0 469 443q0 444 -469 444h-479v-1536zM240 707v770h424q121 0 203.5 -34t121.5 -94.5t53.5 -121t14.5 -136t-14.5 -135t-53.5 -121t-122 -95t-203 -33.5h-424z" />
<glyph unicode="Q" horiz-adv-x="1409" d="M143 768q0 -129 7.5 -222t30 -187.5t61.5 -158t106.5 -114.5t163.5 -76l961 -254v72l-703 162v2q127 8 217 50t144.5 104.5t84 164t40 206t10.5 251.5q0 154 -11.5 262.5t-45 212t-94 165.5t-164 100t-246.5 38q-178 0 -293 -53t-172.5 -164.5t-77 -238.5t-19.5 -322z M209 768q0 190 18.5 313t70.5 220.5t151.5 141.5t255 44t255 -44t151.5 -141.5t70.5 -220.5t18.5 -313t-18.5 -313t-70.5 -220.5t-151.5 -141.5t-255 -44t-255 44t-151.5 141.5t-70.5 220.5t-18.5 313z" />
<glyph unicode="R" horiz-adv-x="1255" d="M174 0v1536h483q141 0 234.5 -26.5t143.5 -83t69.5 -128t19.5 -176.5q0 -182 -69.5 -280.5t-255.5 -124.5l385 -717h-80l-371 711q-25 -2 -76 -2h-417v-709h-66zM240 768h448q117 0 193.5 26.5t113.5 79t50.5 109.5t13.5 139t-13.5 139.5t-50.5 109.5t-113.5 79 t-193.5 27h-448v-709z" />
<glyph unicode="S" horiz-adv-x="1226" d="M131 59q74 -29 192.5 -49t217.5 -20q162 0 276.5 38t172 104.5t82 137t24.5 154.5q0 98 -20.5 165.5t-51.5 108.5t-96.5 67t-127 37t-171.5 23q-262 29 -348 86.5t-86 235.5q0 158 96 249t340 91q205 0 377 -64v64q-147 59 -377 59q-145 0 -247.5 -33.5t-155 -94 t-75 -125t-22.5 -144.5q0 -209 99.5 -278.5t377.5 -100.5q268 -31 345 -92.5t77 -253.5q0 -375 -487 -375q-217 0 -412 72v-62z" />
<glyph unicode="T" horiz-adv-x="1142" d="M92 1479h447v-1479h65v1479h447v57h-959v-57z" />
<glyph unicode="U" horiz-adv-x="1380" d="M164 498q0 -154 41 -257.5t117.5 -156.5t163.5 -73.5t204 -20.5t204 20.5t164 73.5t118 156.5t41 257.5v1038h-64v-1036q0 -254 -112.5 -352.5t-350 -98.5t-350.5 98.5t-113 352.5v1036h-63v-1038z" />
<glyph unicode="V" horiz-adv-x="1294" d="M82 1536l543 -1546h45l542 1546h-71l-494 -1434l-493 1434h-72z" />
<glyph unicode="W" horiz-adv-x="1716" d="M82 1536l352 -1546h53l371 1417l371 -1417h53l352 1546h-67l-312 -1423l-368 1423h-58l-368 -1423l-311 1423h-68z" />
<glyph unicode="X" horiz-adv-x="1243" d="M72 0h86l463 729l464 -729h86l-514 778l498 758h-82l-452 -709l-451 709h-82l496 -758z" />
<glyph unicode="Y" horiz-adv-x="1327" d="M82 1536l549 -907v-629h65v629l549 907h-80l-501 -848l-502 848h-80z" />
<glyph unicode="Z" horiz-adv-x="1261" d="M102 0h1057v57h-979l948 1434v45h-983v-57h906l-949 -1434v-45z" />
<glyph unicode="[" horiz-adv-x="532" d="M164 -422v2093h276v-59h-213v-1974h213v-60h-276z" />
<glyph unicode="\" horiz-adv-x="860" d="M41 1671l711 -2093h67l-710 2093h-68z" />
<glyph unicode="]" horiz-adv-x="532" d="M92 -362v-60h277v2093h-277v-59h213v-1974h-213z" />
<glyph unicode="^" horiz-adv-x="1105" d="M172 1024h47l354 457l355 -457h47l-373 512h-57z" />
<glyph unicode="_" horiz-adv-x="655" d="M0 -455v-57h655v57h-655z" />
<glyph unicode="`" horiz-adv-x="1105" d="M279 1536h100l213 -358h-37z" />
<glyph unicode="a" horiz-adv-x="1069" d="M143 303q0 -137 86 -225t271 -88q86 0 186 23.5t160 66.5l28 -80h31v707q0 166 -77.5 246.5t-297.5 80.5q-174 0 -294 -43v-55q117 43 294 43q180 0 245 -60.5t65 -209.5v-74l-338 -21q-359 -22 -359 -311zM207 303q0 236 270 254l363 25v-443q-154 -94 -336 -94 q-297 0 -297 258z" />
<glyph unicode="b" horiz-adv-x="1165" d="M174 0h27l28 80q137 -90 359 -90q123 0 209 39t131 112.5t64.5 162.5t19.5 208t-19.5 208t-64.5 162.5t-131 112.5t-209 39q-217 0 -352 -86v588h-62v-1536zM236 131v762q137 86 352 86q109 0 183.5 -39t111.5 -109.5t51 -146.5t14 -172t-14 -172t-51 -146.5t-112 -109.5 t-183 -39q-215 0 -352 86z" />
<glyph unicode="c" horiz-adv-x="995" d="M154 512q0 252 92 387t332 135q158 0 284 -41v-55q-152 41 -284 41q-111 0 -185 -37t-110.5 -107.5t-51 -146.5t-14.5 -176t14.5 -176t51 -146.5t110.5 -107.5t185 -37q133 0 284 41v-55q-127 -41 -284 -41q-240 0 -332 135t-92 387z" />
<glyph unicode="d" horiz-adv-x="1165" d="M154 512q0 119 19.5 208t64.5 162.5t131 112.5t209 39q217 0 352 -86v588h61v-1536h-26l-29 80q-137 -90 -358 -90q-123 0 -209 39t-131 112.5t-64.5 162.5t-19.5 208zM217 512q0 -96 14.5 -172t51 -146.5t111.5 -109.5t184 -39q213 0 352 86v762q-139 86 -352 86 q-109 0 -184 -39t-111.5 -109.5t-51 -146.5t-14.5 -172z" />
<glyph unicode="e" horiz-adv-x="1107" d="M154 512q0 -252 92 -387t332 -135q193 0 325 51v55q-158 -51 -325 -51q-106 0 -179 35t-111 99.5t-53.5 137t-17.5 166.5h737v29q0 102 -6 172t-28.5 141.5t-62.5 113.5t-109.5 68.5t-169.5 26.5q-240 0 -332 -135t-92 -387zM217 541q2 94 17.5 166.5t53.5 137 t110.5 99.5t179.5 35q84 0 144 -25.5t93 -63.5t51.5 -100.5t22.5 -115.5t4 -133h-676z" />
<glyph unicode="f" horiz-adv-x="819" d="M82 969h194v-969h62v969h350v55h-350v233q0 233 295 234q78 0 127 -8v55q-41 8 -127 8q-356 0 -357 -289v-231l-194 -33v-24z" />
<glyph unicode="g" horiz-adv-x="1126" d="M55 -227q0 -172 118 -233.5t355 -61.5q233 0 392 83t159 249q0 223 -260 258l-432 59q-35 4 -54.5 9t-40 24.5t-20.5 54.5q0 78 76 117q78 -23 184 -23q217 0 303.5 92.5t86.5 270.5q0 211 -115 293l199 34v25h-344q-66 10 -130 10q-217 0 -303 -92t-86 -270 q0 -240 148 -316q-78 -51 -78 -141q0 -100 102 -131q-111 -35 -185.5 -114.5t-74.5 -196.5zM119 -227q0 123 87 193.5t208 101.5l395 -54q111 -14 159 -63t48 -141q0 -141 -140.5 -209t-347.5 -68q-211 0 -310 49.5t-99 190.5zM207 671.5q0 143.5 66.5 225.5t259 82t259 -82 t66.5 -225.5t-66.5 -225t-259 -81.5t-259 81.5t-66.5 225z" />
<glyph unicode="h" horiz-adv-x="1093" d="M174 0h62v895q135 84 358 84q137 0 203.5 -48t66.5 -177v-754h66v748q0 154 -78 220t-258 66q-90 0 -191.5 -23.5t-166.5 -64.5v590h-62v-1536z" />
<glyph unicode="i" horiz-adv-x="573" d="M213 1413q0 25 17.5 43.5t43.5 18.5q25 0 43.5 -18.5t18.5 -43.5q0 -27 -18.5 -44t-43.5 -17q-27 0 -44 17t-17 44zM244 139q0 -150 155 -149v49q-55 0 -74.5 22.5t-19.5 81.5v881h-61v-885z" />
<glyph unicode="j" horiz-adv-x="552" d="M-39 -477v-45q344 0 344 274v1272h-61v-1288q0 -213 -283 -213zM213 1413q0 25 17.5 43.5t43.5 18.5q25 0 43.5 -18.5t18.5 -43.5q0 -27 -18.5 -44t-43.5 -17q-27 0 -44 17t-17 44z" />
<glyph unicode="k" horiz-adv-x="1019" d="M174 0h62v403l178 170l456 -573h88l-505 612l428 412h-88l-557 -549v1061h-62v-1536z" />
<glyph unicode="l" horiz-adv-x="573" d="M244 139q0 -150 155 -149v49q-55 0 -74.5 22.5t-19.5 81.5v1393h-61v-1397z" />
<glyph unicode="m" horiz-adv-x="1636" d="M174 0h66v895q135 84 325 84q125 0 175.5 -40t50.5 -165v-774h65v768q0 61 -12 111q158 100 338 100q125 0 175 -40t50 -165v-774h66v768q0 141 -65 203.5t-226 62.5q-182 0 -357 -108q-57 109 -260 108q-190 0 -332 -90l-28 80h-31v-1024z" />
<glyph unicode="n" horiz-adv-x="1097" d="M174 0h66v895q135 84 358 84q137 0 203.5 -48t66.5 -177v-754h66v748q0 154 -78 220t-258 66q-92 0 -195.5 -24.5t-169.5 -65.5l-28 80h-31v-1024z" />
<glyph unicode="o" horiz-adv-x="1150" d="M154 512q0 -123 16 -210t59 -161.5t129 -112.5t217.5 -38t217.5 38t129 112.5t59 161.5t16 210t-16 210t-59 161.5t-129 112.5t-217.5 38t-217.5 -38t-129 -112.5t-59 -161.5t-16 -210zM217 512q0 111 11.5 184.5t46 143t109.5 104.5t191.5 35t191.5 -35t109.5 -104.5 t46 -143t11.5 -184.5t-11.5 -184.5t-46 -143t-109.5 -104.5t-191.5 -35t-191.5 35t-109.5 104.5t-46 143t-11.5 184.5z" />
<glyph unicode="p" horiz-adv-x="1165" d="M174 -512v1536h27l28 -80q137 90 359 90q123 0 209 -39t131 -112.5t64.5 -162.5t19.5 -208t-19.5 -208t-64.5 -162.5t-131 -112.5t-209 -39q-217 0 -352 86v-588h-62zM236 131q137 -86 352 -86q109 0 183.5 39t111.5 109.5t51 146.5t14 172t-14 172t-51 146.5t-112 109.5 t-183 39q-215 0 -352 -86v-762z" />
<glyph unicode="q" horiz-adv-x="1165" d="M154 512q0 -119 19.5 -208t64.5 -162.5t131 -112.5t209 -39q217 0 352 86v-588h61v1536h-26l-29 -80q-137 90 -358 90q-123 0 -209 -39t-131 -112.5t-64.5 -162.5t-19.5 -208zM217 512q0 96 14.5 172t51 146.5t111.5 109.5t184 39q213 0 352 -86v-762q-139 -86 -352 -86 q-109 0 -184 39t-111.5 109.5t-51 146.5t-14.5 172z" />
<glyph unicode="r" horiz-adv-x="786" d="M174 0h66v895q135 84 358 84q53 0 96 -6v55q-43 6 -96 6q-92 0 -195.5 -24.5t-169.5 -65.5l-28 80h-31v-1024z" />
<glyph unicode="s" horiz-adv-x="987" d="M143 760q0 274 371 274q158 0 285 -41v-55q-152 41 -285 41q-170 0 -239.5 -54.5t-69.5 -164.5q0 -106 57 -143t232 -58q205 -25 277.5 -84t72.5 -199q0 -127 -92.5 -206.5t-309.5 -79.5q-158 0 -284 41v55q152 -41 284 -41q340 0 340 229q0 115 -55 161t-235 67 q-205 25 -277 79t-72 179z" />
<glyph unicode="t" horiz-adv-x="819" d="M82 969h194v-705q0 -274 345 -274h24v49h-24q-283 0 -283 209v721h350v55h-350v315l-62 -10v-303l-194 -33v-24z" />
<glyph unicode="u" horiz-adv-x="1097" d="M164 276q0 -154 77.5 -220t258.5 -66q92 0 195.5 24.5t168.5 65.5l29 -80h31v1024h-66v-895q-135 -84 -358 -84q-137 0 -204 48t-67 177v754h-65v-748z" />
<glyph unicode="v" horiz-adv-x="1007" d="M82 1024l407 -1034h29l408 1034h-72l-350 -926l-348 926h-74z" />
<glyph unicode="w" horiz-adv-x="1425" d="M82 1024h70l243 -928l281 928h74l280 -928l244 928h69l-288 -1034h-49l-293 954l-293 -954h-49z" />
<glyph unicode="x" horiz-adv-x="937" d="M61 0l375 528l-350 496h72l311 -451l311 451h72l-350 -496l375 -528h-74l-334 481l-334 -481h-74z" />
<glyph unicode="y" horiz-adv-x="1007" d="M82 1024l393 -1014l-219 -522h70l600 1536h-72l-350 -938l-348 938h-74z" />
<glyph unicode="z" horiz-adv-x="978" d="M102 0h775v49h-705l684 936v39h-721v-49h649l-682 -936v-39z" />
<glyph unicode="{" horiz-adv-x="491" d="M53 596h23q76 0 108.5 -33t28.5 -100l-37 -690q-6 -98 49.5 -146.5t155.5 -48.5h35v57h-35q-74 0 -107.5 33t-29.5 101l39 690q6 109 -93 166q98 57 93 166l-39 690q-4 68 29.5 100.5t107.5 32.5h35v57h-35q-100 0 -155.5 -48t-49.5 -146l37 -691q6 -127 -123 -133h-37 v-57z" />
<glyph unicode="|" horiz-adv-x="503" d="M219 -422v2093h66v-2093h-66z" />
<glyph unicode="}" horiz-adv-x="491" d="M53 -365h35q74 0 107.5 33t29.5 101l-39 690q-6 109 90 166q-96 57 -90 166l39 690q4 68 -29.5 100.5t-107.5 32.5h-35v57h35q100 0 155.5 -48t49.5 -146l-37 -691q-6 -127 121 -133h39v-57h-39q-127 -6 -121 -133l37 -690q6 -98 -49.5 -146.5t-155.5 -48.5h-35v57z" />
<glyph unicode="~" horiz-adv-x="757" d="M72 707v61q68 -61 151 -61q59 0 144.5 69.5t164.5 69.5q98 0 154 -55v-62q-68 61 -151 62q-59 0 -144.5 -70t-165.5 -70q-98 1 -153 56z" />
<glyph unicode="&#xa1;" horiz-adv-x="450" d="M164 973q0 -25 17.5 -43.5t43.5 -18.5q25 0 43.5 18.5t18.5 43.5q0 27 -18.5 44t-43.5 17q-27 0 -44 -17t-17 -44zM180 -512h90l-28 1106h-33z" />
<glyph unicode="&#xa2;" d="M135 768q0 -428 389 -504l-96 -264h57l86 256q86 -10 166 -10q197 0 346 53v53q-190 -51 -350 -51q-285 0 -409.5 121t-124.5 346t125 346t409 121q160 0 350 -51v53q-113 35 -247 47l92 252h-58l-86 -248q-16 2 -47 2q-317 0 -459.5 -134t-142.5 -388z" />
<glyph unicode="&#xa3;" d="M111 0h1009v49h-768v727h568v49h-568v308q0 188 96.5 273t301.5 85q188 0 325 -47v57q-113 45 -325 45q-254 0 -358.5 -104.5t-104.5 -311.5v-305h-176v-49h176v-727h-176v-49z" />
<glyph unicode="&#xa5;" d="M63 1536l336 -594h-284v-57h317l133 -234h-450v-57h467v-594h65v594h467v57h-450l131 234h319v57h-287l338 594h-80l-471 -854l-471 854h-80z" />
<glyph unicode="&#xa6;" horiz-adv-x="503" d="M219 -422v1018h66v-1018h-66zM219 653v1018h66v-1018h-66z" />
<glyph unicode="&#xa7;" horiz-adv-x="1329" d="M111 578q0 -209 99 -279t378 -100q262 -29 348 -86.5t86 -235.5q0 -158 -96.5 -249t-339.5 -91q-205 0 -377 64v-64q147 -59 377 -59q145 0 247.5 33.5t154.5 94t74.5 125t22.5 144.5q0 156 -57 234q190 98 191 337q0 209 -99.5 279t-378.5 100q-262 29 -348 86.5 t-86 235.5q0 158 96.5 249t339.5 91q205 0 377 -64v64q-150 59 -377 59q-145 0 -247.5 -33.5t-154.5 -94t-74.5 -125t-22.5 -144.5q0 -162 57 -236q-190 -93 -190 -335zM174 575q0 217 172 293q86 -66 375 -98q262 -29 348 -86t86 -235q0 -217 -172 -295q-88 68 -375 100 q-262 29 -348 86t-86 235z" />
<glyph unicode="&#xa8;" horiz-adv-x="1105" d="M328 1413q0 25 17 43.5t44 18.5q25 0 43.5 -18.5t18.5 -43.5q0 -27 -18.5 -44t-43.5 -17q-27 0 -44 17t-17 44zM696 1413q0 25 17.5 43.5t44.5 18.5q25 0 43 -18.5t18 -43.5q0 -27 -18.5 -44t-42.5 -17q-27 0 -44.5 17t-17.5 44z" />
<glyph unicode="&#xa9;" horiz-adv-x="1392" d="M154 512q0 -162 41 -270.5t120.5 -160.5t165.5 -71.5t205 -19.5t205 19.5t166 71.5t121 160.5t41 270.5q0 131 -29 227.5t-76 152.5t-118.5 89t-143.5 43t-166 10t-165.5 -10t-143.5 -43t-119 -89t-75.5 -152.5t-28.5 -227.5zM217 512q0 141 33 236.5t99.5 143.5 t146 67.5t190.5 19.5t190.5 -19.5t146.5 -67.5t99.5 -143.5t32.5 -236.5t-32.5 -236.5t-99.5 -143.5t-146.5 -67.5t-190.5 -19.5t-190.5 19.5t-146 67.5t-99.5 143.5t-33 236.5zM397 512q0 -324 283 -324q121 0 184 29v55q-74 -29 -184 -28q-219 0 -219 268t219 268 q111 0 184 -28v55q-63 29 -184 29q-283 0 -283 -324z" />
<glyph unicode="&#xaa;" horiz-adv-x="819" d="M109 1001q0 -231 262 -231q150 0 258 80l24 -70h31v525q0 125 -61.5 183t-219.5 58q-125 0 -229 -33v-53q123 31 229 31q125 0 170 -39t45 -141v-62l-239 -18q-135 -8 -202.5 -59.5t-67.5 -170.5zM172 1001q0 162 197 177l249 20v-301q-104 -72 -243 -72q-203 0 -203 176 z" />
<glyph unicode="&#xab;" horiz-adv-x="1013" d="M113 489l389 -333v63l-326 293l326 293v61l-389 -331v-46zM502 489l389 -333v63l-326 293l326 293v61l-389 -331v-46z" />
<glyph unicode="&#xac;" horiz-adv-x="1351" d="M164 0h1024v1024h-1024v-1024z" />
<glyph unicode="&#xad;" horiz-adv-x="757" d="M145 670h467v57h-467v-57z" />
<glyph unicode="&#xae;" horiz-adv-x="704" d="M82 1280q0 -152 72.5 -209t197.5 -57t198 57t73 209t-73 209t-198 57t-197.5 -57t-72.5 -209zM131 1280q0 131 55.5 176t166 45t165.5 -45t55 -176t-55 -176t-165.5 -45t-166 45t-55.5 176zM246 1133v294h119q98 0 98 -90q0 -63 -47 -80l69 -124h-53l-61 118h-78v-118 h-47zM293 1298h78q47 0 47 39q0 45 -47 45h-78v-84z" />
<glyph unicode="&#xaf;" horiz-adv-x="1232" d="M334 1434v55h561v-55h-561z" />
<glyph unicode="&#xb0;" horiz-adv-x="749" d="M102 1280q0 -143 78 -204.5t195 -61.5t194.5 61.5t77.5 204.5t-77.5 204.5t-194.5 61.5t-195 -61.5t-78 -204.5zM166 1280q0 113 52 162t156.5 49t157 -49t52.5 -162t-52.5 -162t-157 -49t-156.5 49t-52 162z" />
<glyph unicode="&#xb1;" horiz-adv-x="1064" d="M133 184h799v58h-799v-58zM133 670h371v-371h57v371h371v57h-371v371h-57v-371h-371v-57z" />
<glyph unicode="&#xb2;" d="M16 0h959v57h-873l686 738q104 113 149.5 191.5t45.5 182.5q0 379 -481 379q-225 0 -359 -53v-57q164 53 361 53q238 0 327 -82t89 -240q0 -145 -127 -280l-777 -852v-37z" />
<glyph unicode="&#xb3;" horiz-adv-x="1095" d="M143 45q129 -55 320 -55q270 0 391 117.5t121 312.5q0 100 -32 181t-116 139.5t-213 60.5q152 16 229 120.5t77 235.5q0 389 -471 389q-143 0 -306 -51v-57q182 53 306 53q229 0 318 -88t89 -246q0 -139 -91 -235.5t-288 -96.5h-135v-57h135q229 0 331.5 -80t102.5 -268 q0 -375 -448 -375q-162 0 -320 55v-55z" />
<glyph unicode="&#xb4;" horiz-adv-x="1105" d="M555 1178h37l276 358h-100z" />
<glyph unicode="&#xb5;" horiz-adv-x="1097" d="M164 -512h65v580q76 -78 271 -78q92 0 195.5 24.5t168.5 65.5l29 -80h31v1024h-66v-895q-135 -84 -358 -84q-137 0 -204 48t-67 177v754h-65v-1536z" />
<glyph unicode="&#xb6;" horiz-adv-x="1214" d="M176 1092q0 444 469 444h479v-1536h-65v649h-197v-649h-65v649h-152q-469 1 -469 443zM242 1091.5q0 -75.5 14 -135t53 -121t122 -95t204 -33.5h162v770h-162q-121 0 -204 -34t-122 -94.5t-53 -121t-14 -136zM862 707h197v770h-197v-770z" />
<glyph unicode="&#xb7;" horiz-adv-x="450" d="M164 768q0 25 17.5 43t43.5 18q25 0 43.5 -18t18.5 -43q0 -27 -18.5 -44t-43.5 -17q-27 0 -44 17t-17 44z" />
<glyph unicode="&#xb8;" horiz-adv-x="1232" d="M502 -379h76q33 23 56 58.5t14 83t-73 79.5q-12 8 -19 15.5t-12 14.5t-5 17v17q0 6 5 16t7 15.5t10 16.5l11 15q3 4 13.5 16.5t12.5 14.5h-45q-115 -139 2 -201q31 -16 37 -40.5t-9.5 -51t-35.5 -47.5t-45 -39z" />
<glyph unicode="&#xb9;" d="M203 1403l379 53v-1399h-306v-57h666v57h-283v1489h-30l-426 -121v-22z" />
<glyph unicode="&#xba;" horiz-adv-x="960" d="M137 1157q0 209 79 299t257 90t257 -90t79 -299t-79 -299t-257 -90t-257 90t-79 299zM201 1157q0 -184 62.5 -259t210 -75t209.5 75t62 259t-62 259t-209.5 75t-210 -75t-62.5 -259z" />
<glyph unicode="&#xbb;" horiz-adv-x="1013" d="M123 156v63l326 293l-326 293v61l389 -331v-46zM512 156v63l326 293l-326 293v61l389 -331v-46z" />
<glyph unicode="&#xbc;" horiz-adv-x="4341" d="M3228 512h727v-512h61v512h232v49h-232v985h-35l-753 -997v-37zM3306 561l649 858v-858h-649zM1667 0h-76l1086 1536h76zM203 1403l379 53v-1399h-306v-57h666v57h-283v1489h-30l-426 -121v-22z" />
<glyph unicode="&#xbd;" horiz-adv-x="4341" d="M3129 0h959v57h-873l686 738q104 113 149.5 191.5t45.5 182.5q0 379 -481 379q-225 0 -359 -53v-57q164 53 361 53q238 0 327 -82t89 -240q0 -145 -127 -280l-777 -852v-37zM1667 0h-76l1086 1536h76zM203 1403l379 53v-1399h-306v-57h666v57h-283v1489h-30l-426 -121 v-22z" />
<glyph unicode="&#xbe;" horiz-adv-x="4208" d="M3095 512h727v-512h61v512h232v49h-232v985h-35l-753 -997v-37zM3173 561l649 858v-858h-649zM1534 0h-76l1086 1536h76zM143 45q129 -55 320 -55q270 0 391 117.5t121 312.5q0 100 -32 181t-116 139.5t-213 60.5q152 16 229 120.5t77 235.5q0 389 -471 389 q-143 0 -306 -51v-57q182 53 306 53q229 0 318 -88t89 -246q0 -139 -91 -235.5t-288 -96.5h-135v-57h135q229 0 331.5 -80t102.5 -268q0 -375 -448 -375q-162 0 -320 55v-55z" />
<glyph unicode="&#xbf;" horiz-adv-x="1024" d="M92 -127q0 -86 18.5 -149.5t68.5 -123t154.5 -91t260.5 -31.5q176 0 297 45v55q-160 -45 -299 -45q-254 0 -346 90t-92 252q0 51 8 92t17 71t31.5 55.5t37 39.5t50.5 31.5l52.5 25t60.5 22.5t60 21q119 45 167 110t48 165q0 35 -10 86h-27q0 -70 -3 -104.5t-20.5 -74.5 t-54 -66.5t-100.5 -53.5l-65 -26l-64 -24q-18 -7 -53 -23.5t-50 -27.5l-42 -31q-27 -19 -38 -38l-28 -45q-16 -27 -22.5 -56.5t-11.5 -67.5t-5 -83zM557 973q0 27 18.5 44t42.5 17q27 0 44.5 -17.5t17.5 -43.5q0 -25 -17.5 -43.5t-44.5 -18.5q-25 0 -43 18.5t-18 43.5z" />
<glyph unicode="&#xc0;" horiz-adv-x="1294" d="M82 0l543 1546h45l542 -1546h-75l-154 444h-674l-151 -444h-76zM328 502h637l-318 930zM352 2068h101l213 -358h-37z" />
<glyph unicode="&#xc1;" horiz-adv-x="1294" d="M82 0l543 1546h45l542 -1546h-75l-154 444h-674l-151 -444h-76zM328 502h637l-318 930zM629 1710h37l276 358h-100z" />
<glyph unicode="&#xc2;" horiz-adv-x="1294" d="M82 0l543 1546h45l542 -1546h-75l-154 444h-674l-151 -444h-76zM309 1690l297 358h82l297 -358h-49l-289 295l-289 -295h-49zM328 502h637l-318 930z" />
<glyph unicode="&#xc3;" horiz-adv-x="1294" d="M82 0l543 1546h45l542 -1546h-75l-154 444h-674l-151 -444h-76zM328 502h637l-318 930zM340 1827v61q68 -61 152 -61q59 0 144 69.5t165 69.5q98 0 153 -55v-62q-68 61 -151 62q-59 0 -144.5 -69.5t-164.5 -69.5q-99 0 -154 55z" />
<glyph unicode="&#xc4;" horiz-adv-x="1294" d="M82 0l543 1546h45l542 -1546h-75l-154 444h-674l-151 -444h-76zM328 502h637l-318 930zM401 1925q0 25 17.5 43.5t44.5 18.5q25 0 43 -18.5t18 -43.5q0 -27 -18.5 -44t-42.5 -17q-27 0 -44.5 17t-17.5 44zM770 1925q0 25 17.5 43.5t43.5 18.5q25 0 43.5 -18.5t18.5 -43.5 q0 -27 -18.5 -44t-43.5 -17q-27 0 -44 17t-17 44z" />
<glyph unicode="&#xc5;" horiz-adv-x="1294" d="M82 0l543 1546h45l542 -1546h-75l-154 444h-674l-151 -444h-76zM328 502h637l-318 930zM455 1868q0 190 192 190q190 0 191 -190q0 -188 -191 -189q-192 1 -192 189zM504 1867.5q0 -141.5 143 -141.5q139 0 139 141.5t-139 141.5q-143 0 -143 -141.5z" />
<glyph unicode="&#xc6;" horiz-adv-x="2095" d="M82 0h82l493 768h443v-768h852v59h-787v709h711v57h-711v652h787v59h-862zM694 825l406 631v-631h-406z" />
<glyph unicode="&#xc7;" horiz-adv-x="1257" d="M143 768q0 -383 128 -575.5t438 -200.5q-104 -131 10 -193q31 -16 37 -40.5t-9.5 -51t-36 -47t-44.5 -39.5h75q33 23 56.5 58.5t14.5 83t-73 79.5q-35 23 -36 51.5t11.5 46t39.5 50.5q223 2 360 59v64q-172 -63 -377 -64q-281 0 -404.5 175t-123.5 544t124 544t404 175 q205 0 377 -64v64q-147 59 -377 59q-326 0 -460 -193.5t-134 -584.5z" />
<glyph unicode="&#xc8;" horiz-adv-x="1169" d="M174 0h852v59h-786v709h710v57h-710v652h786v59h-852v-1536zM305 2068h101l212 -358h-36z" />
<glyph unicode="&#xc9;" horiz-adv-x="1169" d="M174 0h852v59h-786v709h710v57h-710v652h786v59h-852v-1536zM582 1710h36l277 358h-100z" />
<glyph unicode="&#xca;" horiz-adv-x="1169" d="M174 0h852v59h-786v709h710v57h-710v652h786v59h-852v-1536zM262 1690l297 358h82l297 -358h-49l-289 295l-289 -295h-49z" />
<glyph unicode="&#xcb;" horiz-adv-x="1169" d="M174 0h852v59h-786v709h710v57h-710v652h786v59h-852v-1536zM354 1925q0 25 17.5 43.5t44.5 18.5q25 0 43 -18.5t18 -43.5q0 -27 -18.5 -44t-42.5 -17q-27 0 -44.5 17t-17.5 44zM723 1925q0 25 17.5 43.5t43.5 18.5q25 0 43.5 -18.5t18.5 -43.5q0 -27 -18.5 -44 t-43.5 -17q-27 0 -44 17t-17 44z" />
<glyph unicode="&#xcc;" horiz-adv-x="503" d="M-43 2068h100l213 -358h-37zM219 0h66v1536h-66v-1536z" />
<glyph unicode="&#xcd;" horiz-adv-x="503" d="M219 0h66v1536h-66v-1536zM233 1710h37l277 358h-101z" />
<glyph unicode="&#xce;" horiz-adv-x="503" d="M-86 1690l297 358h82l297 -358h-49l-289 295l-289 -295h-49zM219 0h66v1536h-66v-1536z" />
<glyph unicode="&#xcf;" horiz-adv-x="503" d="M6 1925q0 25 17.5 43.5t44.5 18.5q25 0 43 -18.5t18 -43.5q0 -27 -18.5 -44t-42.5 -17q-27 0 -44.5 17t-17.5 44zM219 0h66v1536h-66v-1536zM375 1925q0 25 17.5 43.5t43.5 18.5q25 0 43.5 -18.5t18.5 -43.5q0 -27 -18.5 -44t-43.5 -17q-27 0 -44 17t-17 44z" />
<glyph unicode="&#xd0;" horiz-adv-x="1351" d="M-72 561l246 154v-715h444q178 0 296 50t181.5 155.5t88 237.5t24.5 325t-24.5 325t-88 237.5t-181 155.5t-296.5 50h-444v-754l-246 -153v-68zM240 59v697l243 151v68l-243 -152v654h368q307 0 420 -167t113 -542t-113 -542t-420 -167h-368z" />
<glyph unicode="&#xd1;" horiz-adv-x="1380" d="M174 0h57l-4 1419l938 -1419h41v1536h-57l4 -1419l-938 1419h-41v-1536zM383 1827v61q68 -61 152 -61q59 0 144 69.5t165 69.5q98 0 153 -55v-62q-68 61 -151 62q-59 0 -144.5 -69.5t-164.5 -69.5q-99 0 -154 55z" />
<glyph unicode="&#xd2;" horiz-adv-x="1409" d="M143 768q0 -195 19.5 -322t77 -238.5t172 -164.5t293.5 -53q143 0 246.5 38t164 100t94 165.5t45 212t11.5 262.5t-11.5 262.5t-45 212t-94 165.5t-164 100t-246.5 38q-178 0 -293 -53t-172.5 -164.5t-77 -238.5t-19.5 -322zM209 768q0 190 18.5 313t70.5 220.5 t151.5 141.5t255 44t255 -44t151.5 -141.5t70.5 -220.5t18.5 -313t-18.5 -313t-70.5 -220.5t-151.5 -141.5t-255 -44t-255 44t-151.5 141.5t-70.5 220.5t-18.5 313zM410 2068h100l213 -358h-37z" />
<glyph unicode="&#xd3;" horiz-adv-x="1409" d="M143 768q0 -195 19.5 -322t77 -238.5t172 -164.5t293.5 -53q143 0 246.5 38t164 100t94 165.5t45 212t11.5 262.5t-11.5 262.5t-45 212t-94 165.5t-164 100t-246.5 38q-178 0 -293 -53t-172.5 -164.5t-77 -238.5t-19.5 -322zM209 768q0 190 18.5 313t70.5 220.5 t151.5 141.5t255 44t255 -44t151.5 -141.5t70.5 -220.5t18.5 -313t-18.5 -313t-70.5 -220.5t-151.5 -141.5t-255 -44t-255 44t-151.5 141.5t-70.5 220.5t-18.5 313zM686 1710h37l276 358h-100z" />
<glyph unicode="&#xd4;" horiz-adv-x="1409" d="M143 768q0 -195 19.5 -322t77 -238.5t172 -164.5t293.5 -53q143 0 246.5 38t164 100t94 165.5t45 212t11.5 262.5t-11.5 262.5t-45 212t-94 165.5t-164 100t-246.5 38q-178 0 -293 -53t-172.5 -164.5t-77 -238.5t-19.5 -322zM209 768q0 190 18.5 313t70.5 220.5 t151.5 141.5t255 44t255 -44t151.5 -141.5t70.5 -220.5t18.5 -313t-18.5 -313t-70.5 -220.5t-151.5 -141.5t-255 -44t-255 44t-151.5 141.5t-70.5 220.5t-18.5 313zM367 1690l297 358h81l297 -358h-49l-288 295l-289 -295h-49z" />
<glyph unicode="&#xd5;" horiz-adv-x="1409" d="M143 768q0 -195 19.5 -322t77 -238.5t172 -164.5t293.5 -53q143 0 246.5 38t164 100t94 165.5t45 212t11.5 262.5t-11.5 262.5t-45 212t-94 165.5t-164 100t-246.5 38q-178 0 -293 -53t-172.5 -164.5t-77 -238.5t-19.5 -322zM209 768q0 190 18.5 313t70.5 220.5 t151.5 141.5t255 44t255 -44t151.5 -141.5t70.5 -220.5t18.5 -313t-18.5 -313t-70.5 -220.5t-151.5 -141.5t-255 -44t-255 44t-151.5 141.5t-70.5 220.5t-18.5 313zM397 1827v61q68 -61 152 -61q59 0 144 69.5t165 69.5q98 0 154 -55v-62q-68 61 -152 62q-59 0 -144 -69.5 t-165 -69.5q-99 0 -154 55z" />
<glyph unicode="&#xd6;" horiz-adv-x="1409" d="M143 768q0 -195 19.5 -322t77 -238.5t172 -164.5t293.5 -53q143 0 246.5 38t164 100t94 165.5t45 212t11.5 262.5t-11.5 262.5t-45 212t-94 165.5t-164 100t-246.5 38q-178 0 -293 -53t-172.5 -164.5t-77 -238.5t-19.5 -322zM209 768q0 190 18.5 313t70.5 220.5 t151.5 141.5t255 44t255 -44t151.5 -141.5t70.5 -220.5t18.5 -313t-18.5 -313t-70.5 -220.5t-151.5 -141.5t-255 -44t-255 44t-151.5 141.5t-70.5 220.5t-18.5 313zM459 1925q0 25 17.5 43.5t43.5 18.5q25 0 43.5 -18.5t18.5 -43.5q0 -27 -18.5 -44t-43.5 -17q-27 0 -44 17 t-17 44zM827 1925q0 25 17.5 43.5t44.5 18.5q25 0 43 -18.5t18 -43.5q0 -27 -18.5 -44t-42.5 -17q-27 0 -44.5 17t-17.5 44z" />
<glyph unicode="&#xd7;" horiz-adv-x="1064" d="M229 436l41 -41l262 262l263 -262l41 41l-263 262l263 263l-41 40l-263 -262l-262 262l-41 -40l263 -263z" />
<glyph unicode="&#xd8;" horiz-adv-x="1409" d="M143 768q0 -233 31 -388t119 -249l-78 -131h74l51 88q129 -98 365 -98q143 0 246.5 38t164 100t94 165.5t45 212t11.5 262.5q0 231 -31 385t-117 248l80 135h-74l-53 -90q-133 100 -366 100q-178 0 -293 -53t-172.5 -164.5t-77 -238.5t-19.5 -322zM209 768 q0 190 18.5 313t70.5 220.5t151.5 141.5t255.5 44q219 0 333 -96l-710 -1201q-68 84 -93.5 223.5t-25.5 354.5zM373 143l710 1200q68 -86 92.5 -224t24.5 -351q0 -190 -18.5 -313t-70.5 -220.5t-151.5 -141.5t-254.5 -44q-219 0 -332 94z" />
<glyph unicode="&#xd9;" horiz-adv-x="1380" d="M164 498q0 -154 41 -257.5t117.5 -156.5t163.5 -73.5t204 -20.5t204 20.5t164 73.5t118 156.5t41 257.5v1038h-64v-1036q0 -254 -112.5 -352.5t-350 -98.5t-350.5 98.5t-113 352.5v1036h-63v-1038zM395 2068h101l213 -358h-37z" />
<glyph unicode="&#xda;" horiz-adv-x="1380" d="M164 498q0 -154 41 -257.5t117.5 -156.5t163.5 -73.5t204 -20.5t204 20.5t164 73.5t118 156.5t41 257.5v1038h-64v-1036q0 -254 -112.5 -352.5t-350 -98.5t-350.5 98.5t-113 352.5v1036h-63v-1038zM672 1710h37l276 358h-100z" />
<glyph unicode="&#xdb;" horiz-adv-x="1380" d="M164 498q0 -154 41 -257.5t117.5 -156.5t163.5 -73.5t204 -20.5t204 20.5t164 73.5t118 156.5t41 257.5v1038h-64v-1036q0 -254 -112.5 -352.5t-350 -98.5t-350.5 98.5t-113 352.5v1036h-63v-1038zM352 1690l297 358h82l297 -358h-49l-289 295l-289 -295h-49z" />
<glyph unicode="&#xdc;" horiz-adv-x="1380" d="M164 498q0 -154 41 -257.5t117.5 -156.5t163.5 -73.5t204 -20.5t204 20.5t164 73.5t118 156.5t41 257.5v1038h-64v-1036q0 -254 -112.5 -352.5t-350 -98.5t-350.5 98.5t-113 352.5v1036h-63v-1038zM444 1925q0 25 17.5 43.5t44.5 18.5q25 0 43 -18.5t18 -43.5 q0 -27 -18.5 -44t-42.5 -17q-27 0 -44.5 17t-17.5 44zM813 1925q0 25 17.5 43.5t43.5 18.5q25 0 43.5 -18.5t18.5 -43.5q0 -27 -18.5 -44t-43.5 -17q-27 0 -44 17t-17 44z" />
<glyph unicode="&#xdd;" horiz-adv-x="1327" d="M82 1536l549 -907v-629h65v629l549 907h-80l-501 -848l-502 848h-80zM645 1710h37l276 358h-100z" />
<glyph unicode="&#xde;" horiz-adv-x="1214" d="M174 0h66v326h413q469 0 469 442q0 444 -469 444h-413v324h-66v-1536zM240 383v770h424q121 0 203.5 -34t121.5 -94t53.5 -120.5t14.5 -136.5t-14.5 -135.5t-53.5 -120.5t-122 -95t-203 -34h-424z" />
<glyph unicode="&#xdf;" horiz-adv-x="1392" d="M203 0h61v1235q0 123 95.5 190.5t287.5 67.5q190 0 286.5 -71.5t96.5 -194.5q0 -45 -5 -74t-24.5 -60.5t-61.5 -53t-108 -31.5q-156 -27 -214 -79t-58 -169q0 -125 71.5 -179.5t276.5 -78.5q180 -20 235.5 -66.5t55.5 -161.5q0 -229 -340 -229q-133 0 -285 41v-55 q127 -41 285 -41q217 0 309.5 80t92.5 206q0 139 -73 199t-278 84q-174 20 -231 57t-57 144q0 45 12 76.5t27.5 50t51.5 33t59.5 19.5t72.5 13q141 25 194.5 90.5t53.5 184.5q0 147 -110 233t-335 86t-335.5 -84t-108.5 -229v-1233z" />
<glyph unicode="&#xe0;" horiz-adv-x="1060" d="M125 303q0 -137 86 -225t270 -88q86 0 186.5 23.5t159.5 66.5l29 -80h31v707q0 166 -78 246.5t-297 80.5q-174 0 -295 -43v-55q117 43 295 43q180 0 244.5 -60.5t64.5 -209.5v-74l-338 -21q-358 -22 -358 -311zM188 303q0 236 271 254l362 25v-443q-154 -94 -336 -94 q-297 0 -297 258zM217 1536h100l213 -358h-36z" />
<glyph unicode="&#xe1;" horiz-adv-x="1060" d="M125 303q0 -137 86 -225t270 -88q86 0 186.5 23.5t159.5 66.5l29 -80h31v707q0 166 -78 246.5t-297 80.5q-174 0 -295 -43v-55q117 43 295 43q180 0 244.5 -60.5t64.5 -209.5v-74l-338 -21q-358 -22 -358 -311zM188 303q0 236 271 254l362 25v-443q-154 -94 -336 -94 q-297 0 -297 258zM494 1178h36l277 358h-100z" />
<glyph unicode="&#xe2;" horiz-adv-x="1060" d="M125 303q0 -137 86 -225t270 -88q86 0 186.5 23.5t159.5 66.5l29 -80h31v707q0 166 -78 246.5t-297 80.5q-174 0 -295 -43v-55q117 43 295 43q180 0 244.5 -60.5t64.5 -209.5v-74l-338 -21q-358 -22 -358 -311zM174 1178l297 358h82l297 -358h-49l-289 295l-289 -295h-49 zM188 303q0 236 271 254l362 25v-443q-154 -94 -336 -94q-297 0 -297 258z" />
<glyph unicode="&#xe3;" horiz-adv-x="1060" d="M125 303q0 -137 86 -225t270 -88q86 0 186.5 23.5t159.5 66.5l29 -80h31v707q0 166 -78 246.5t-297 80.5q-174 0 -295 -43v-55q117 43 295 43q180 0 244.5 -60.5t64.5 -209.5v-74l-338 -21q-358 -22 -358 -311zM188 303q0 236 271 254l362 25v-443q-154 -94 -336 -94 q-297 0 -297 258zM205 1315v61q68 -61 151 -61q59 0 144.5 69.5t165.5 69.5q98 0 153 -55v-62q-68 61 -151 62q-59 0 -144.5 -69.5t-165.5 -69.5q-98 0 -153 55z" />
<glyph unicode="&#xe4;" horiz-adv-x="1060" d="M125 303q0 -137 86 -225t270 -88q86 0 186.5 23.5t159.5 66.5l29 -80h31v707q0 166 -78 246.5t-297 80.5q-174 0 -295 -43v-55q117 43 295 43q180 0 244.5 -60.5t64.5 -209.5v-74l-338 -21q-358 -22 -358 -311zM188 303q0 236 271 254l362 25v-443q-154 -94 -336 -94 q-297 0 -297 258zM266 1413q0 25 17.5 43.5t44.5 18.5q25 0 43 -18.5t18 -43.5q0 -27 -18.5 -44t-42.5 -17q-27 0 -44.5 17t-17.5 44zM635 1413q0 25 17.5 43.5t43.5 18.5q25 0 43.5 -18.5t18.5 -43.5q0 -27 -18.5 -44t-43.5 -17q-27 0 -44 17t-17 44z" />
<glyph unicode="&#xe5;" horiz-adv-x="1060" d="M125 303q0 -137 86 -225t270 -88q86 0 186.5 23.5t159.5 66.5l29 -80h31v707q0 166 -78 246.5t-297 80.5q-174 0 -295 -43v-55q117 43 295 43q180 0 244.5 -60.5t64.5 -209.5v-74l-338 -21q-358 -22 -358 -311zM188 303q0 236 271 254l362 25v-443q-154 -94 -336 -94 q-297 0 -297 258zM319 1356q0 190 193 190q190 0 190 -190q0 -188 -190 -189q-193 1 -193 189zM369 1355.5q0 -141.5 143 -141.5q139 0 139 141.5t-139 141.5q-143 0 -143 -141.5z" />
<glyph unicode="&#xe6;" horiz-adv-x="1775" d="M125 283q0 -133 85 -213t271 -80q82 0 182.5 24.5t163.5 65.5q49 31 78 57q100 -147 340 -147q193 0 326 51v55q-158 -51 -326 -51q-106 0 -179 35t-110.5 99.5t-53 137t-17.5 166.5h737v29q0 102 -6 172t-28.5 141.5t-62.5 113.5t-109.5 68.5t-170.5 26.5 q-279 0 -371 -203q-25 100 -107.5 151.5t-254.5 51.5q-174 0 -295 -43v-55q117 43 295 43q180 0 244.5 -60.5t64.5 -209.5v-168h-317q-205 0 -292 -64.5t-87 -193.5zM188 283q0 102 69 151t222 49h342q4 -190 56 -297q-27 -31 -56 -47q-154 -94 -336 -94q-170 0 -233.5 64.5 t-63.5 173.5zM885 541q2 94 17.5 166.5t53 137t110.5 99.5t179 35q84 0 144.5 -25.5t93.5 -63.5t51 -100.5t22.5 -115.5t4.5 -133h-676z" />
<glyph unicode="&#xe7;" horiz-adv-x="1015" d="M154 512q0 252 92 387t332 135q158 0 284 -41v-55q-152 41 -284 41q-111 0 -185 -37t-110.5 -107.5t-51 -146.5t-14.5 -176t14.5 -176t51 -146.5t110.5 -107.5t185 -37q133 0 284 41v-55q-119 -37 -268 -41q-27 -33 -39 -50.5t-11 -46t36 -51.5q63 -33 72.5 -80 t-14.5 -82.5t-56 -58.5h-76q25 18 45 39t35.5 47.5t9.5 51t-37 40.5q-113 59 -10 191q-221 8 -308 142t-87 380z" />
<glyph unicode="&#xe8;" horiz-adv-x="1107" d="M154 512q0 -252 92 -387t332 -135q193 0 325 51v55q-158 -51 -325 -51q-106 0 -179 35t-111 99.5t-53.5 137t-17.5 166.5h737v29q0 102 -6 172t-28.5 141.5t-62.5 113.5t-109.5 68.5t-169.5 26.5q-240 0 -332 -135t-92 -387zM217 541q2 94 17.5 166.5t53.5 137 t110.5 99.5t179.5 35q84 0 144 -25.5t93 -63.5t51.5 -100.5t22.5 -115.5t4 -133h-676zM283 1536h100l213 -358h-37z" />
<glyph unicode="&#xe9;" horiz-adv-x="1107" d="M154 512q0 -252 92 -387t332 -135q193 0 325 51v55q-158 -51 -325 -51q-106 0 -179 35t-111 99.5t-53.5 137t-17.5 166.5h737v29q0 102 -6 172t-28.5 141.5t-62.5 113.5t-109.5 68.5t-169.5 26.5q-240 0 -332 -135t-92 -387zM217 541q2 94 17.5 166.5t53.5 137 t110.5 99.5t179.5 35q84 0 144 -25.5t93 -63.5t51.5 -100.5t22.5 -115.5t4 -133h-676zM559 1178h37l276 358h-100z" />
<glyph unicode="&#xea;" horiz-adv-x="1107" d="M154 512q0 -252 92 -387t332 -135q193 0 325 51v55q-158 -51 -325 -51q-106 0 -179 35t-111 99.5t-53.5 137t-17.5 166.5h737v29q0 102 -6 172t-28.5 141.5t-62.5 113.5t-109.5 68.5t-169.5 26.5q-240 0 -332 -135t-92 -387zM217 541q2 94 17.5 166.5t53.5 137 t110.5 99.5t179.5 35q84 0 144 -25.5t93 -63.5t51.5 -100.5t22.5 -115.5t4 -133h-676zM240 1178l297 358h81l297 -358h-49l-288 295l-289 -295h-49z" />
<glyph unicode="&#xeb;" horiz-adv-x="1107" d="M154 512q0 -252 92 -387t332 -135q193 0 325 51v55q-158 -51 -325 -51q-106 0 -179 35t-111 99.5t-53.5 137t-17.5 166.5h737v29q0 102 -6 172t-28.5 141.5t-62.5 113.5t-109.5 68.5t-169.5 26.5q-240 0 -332 -135t-92 -387zM217 541q2 94 17.5 166.5t53.5 137 t110.5 99.5t179.5 35q84 0 144 -25.5t93 -63.5t51.5 -100.5t22.5 -115.5t4 -133h-676zM332 1413q0 25 17.5 43.5t43.5 18.5q25 0 43.5 -18.5t18.5 -43.5q0 -27 -18.5 -44t-43.5 -17q-27 0 -44 17t-17 44zM700 1413q0 25 17.5 43.5t44.5 18.5q25 0 43 -18.5t18 -43.5 q0 -27 -18.5 -44t-42.5 -17q-27 0 -44.5 17t-17.5 44z" />
<glyph unicode="&#xec;" horiz-adv-x="573" d="M-18 1536h100l213 -358h-37zM244 139q0 -150 155 -149v49q-55 0 -74.5 22.5t-19.5 81.5v881h-61v-885z" />
<glyph unicode="&#xed;" horiz-adv-x="573" d="M244 139q0 -150 155 -149v49q-55 0 -74.5 22.5t-19.5 81.5v881h-61v-885zM258 1178h37l276 358h-100z" />
<glyph unicode="&#xee;" horiz-adv-x="573" d="M-61 1178l297 358h81l297 -358h-49l-289 295l-288 -295h-49zM244 139q0 -150 155 -149v49q-55 0 -74.5 22.5t-19.5 81.5v881h-61v-885z" />
<glyph unicode="&#xef;" horiz-adv-x="573" d="M31 1413q0 25 17.5 43.5t43.5 18.5q25 0 43.5 -18.5t18.5 -43.5q0 -27 -18.5 -44t-43.5 -17q-27 0 -44 17t-17 44zM244 139q0 -150 155 -149v49q-55 0 -74.5 22.5t-19.5 81.5v881h-61v-885zM399 1413q0 25 17.5 43.5t44.5 18.5q25 0 43 -18.5t18 -43.5q0 -27 -18.5 -44 t-42.5 -17q-27 0 -44.5 17t-17.5 44z" />
<glyph unicode="&#xf0;" horiz-adv-x="1024" d="M154 512q0 -123 16 -210t59 -161.5t129 -112.5t217 -38q127 0 212 35.5t130.5 108.5t62.5 162t17 216v43q-4 354 -43 561t-135 309l164 103v67l-209 -129q-106 80 -287 80q-193 0 -299 -49v-55q135 49 299 49q139 0 230 -61l-289 -181v-67l336 209q137 -137 166 -541 q-104 184 -355 184q-131 0 -217 -38t-129 -112.5t-59 -161.5t-16 -210zM217 512q0 111 11.5 184.5t46 143t109.5 104.5t191 35q115 0 189 -33t109.5 -100.5t48 -143t12.5 -190.5q0 -109 -11.5 -181.5t-46 -143t-109.5 -106.5t-191.5 -36t-191.5 35t-109.5 104.5t-46 143 t-11.5 184.5z" />
<glyph unicode="&#xf1;" horiz-adv-x="1097" d="M174 0h66v895q135 84 358 84q137 0 203.5 -48t66.5 -177v-754h66v748q0 154 -78 220t-258 66q-92 0 -195.5 -24.5t-169.5 -65.5l-28 80h-31v-1024zM248 1315v61q68 -61 151 -61q59 0 144.5 69.5t165.5 69.5q98 0 153 -55v-62q-68 61 -151 62q-59 0 -144.5 -69.5 t-165.5 -69.5q-98 0 -153 55z" />
<glyph unicode="&#xf2;" horiz-adv-x="1150" d="M154 512q0 -123 16 -210t59 -161.5t129 -112.5t217.5 -38t217.5 38t129 112.5t59 161.5t16 210t-16 210t-59 161.5t-129 112.5t-217.5 38t-217.5 -38t-129 -112.5t-59 -161.5t-16 -210zM217 512q0 111 11.5 184.5t46 143t109.5 104.5t191.5 35t191.5 -35t109.5 -104.5 t46 -143t11.5 -184.5t-11.5 -184.5t-46 -143t-109.5 -104.5t-191.5 -35t-191.5 35t-109.5 104.5t-46 143t-11.5 184.5zM281 1536h100l213 -358h-37z" />
<glyph unicode="&#xf3;" horiz-adv-x="1150" d="M154 512q0 -123 16 -210t59 -161.5t129 -112.5t217.5 -38t217.5 38t129 112.5t59 161.5t16 210t-16 210t-59 161.5t-129 112.5t-217.5 38t-217.5 -38t-129 -112.5t-59 -161.5t-16 -210zM217 512q0 111 11.5 184.5t46 143t109.5 104.5t191.5 35t191.5 -35t109.5 -104.5 t46 -143t11.5 -184.5t-11.5 -184.5t-46 -143t-109.5 -104.5t-191.5 -35t-191.5 35t-109.5 104.5t-46 143t-11.5 184.5zM557 1178h37l276 358h-100z" />
<glyph unicode="&#xf4;" horiz-adv-x="1150" d="M154 512q0 -123 16 -210t59 -161.5t129 -112.5t217.5 -38t217.5 38t129 112.5t59 161.5t16 210t-16 210t-59 161.5t-129 112.5t-217.5 38t-217.5 -38t-129 -112.5t-59 -161.5t-16 -210zM217 512q0 111 11.5 184.5t46 143t109.5 104.5t191.5 35t191.5 -35t109.5 -104.5 t46 -143t11.5 -184.5t-11.5 -184.5t-46 -143t-109.5 -104.5t-191.5 -35t-191.5 35t-109.5 104.5t-46 143t-11.5 184.5zM238 1178l297 358h81l297 -358h-49l-289 295l-288 -295h-49z" />
<glyph unicode="&#xf5;" horiz-adv-x="1150" d="M154 512q0 -123 16 -210t59 -161.5t129 -112.5t217.5 -38t217.5 38t129 112.5t59 161.5t16 210t-16 210t-59 161.5t-129 112.5t-217.5 38t-217.5 -38t-129 -112.5t-59 -161.5t-16 -210zM217 512q0 111 11.5 184.5t46 143t109.5 104.5t191.5 35t191.5 -35t109.5 -104.5 t46 -143t11.5 -184.5t-11.5 -184.5t-46 -143t-109.5 -104.5t-191.5 -35t-191.5 35t-109.5 104.5t-46 143t-11.5 184.5zM268 1315v61q68 -61 152 -61q59 0 144 69.5t165 69.5q98 0 154 -55v-62q-68 61 -152 62q-59 0 -144 -69.5t-165 -69.5q-99 0 -154 55z" />
<glyph unicode="&#xf6;" horiz-adv-x="1150" d="M154 512q0 -123 16 -210t59 -161.5t129 -112.5t217.5 -38t217.5 38t129 112.5t59 161.5t16 210t-16 210t-59 161.5t-129 112.5t-217.5 38t-217.5 -38t-129 -112.5t-59 -161.5t-16 -210zM217 512q0 111 11.5 184.5t46 143t109.5 104.5t191.5 35t191.5 -35t109.5 -104.5 t46 -143t11.5 -184.5t-11.5 -184.5t-46 -143t-109.5 -104.5t-191.5 -35t-191.5 35t-109.5 104.5t-46 143t-11.5 184.5zM330 1413q0 25 17.5 43.5t43.5 18.5q25 0 43.5 -18.5t18.5 -43.5q0 -27 -18.5 -44t-43.5 -17q-27 0 -44 17t-17 44zM698 1413q0 25 17.5 43.5t44.5 18.5 q25 0 43 -18.5t18 -43.5q0 -27 -18.5 -44t-42.5 -17q-27 0 -44.5 17t-17.5 44z" />
<glyph unicode="&#xf7;" horiz-adv-x="1064" d="M133 670h799v57h-799v-57zM471 350q0 25 17.5 43.5t43.5 18.5q25 0 43.5 -18.5t18.5 -43.5q0 -27 -18.5 -44t-43.5 -17q-27 0 -44 17t-17 44zM471 1047q0 25 17.5 43t43.5 18q25 0 43.5 -18.5t18.5 -42.5q0 -27 -18.5 -44.5t-43.5 -17.5q-27 0 -44 17.5t-17 44.5z" />
<glyph unicode="&#xf8;" horiz-adv-x="1150" d="M154 512q0 -311 118 -426l-55 -86h74l31 49q94 -59 253 -59q131 0 217.5 38t129.5 112.5t59 161.5t16 210q0 307 -118 424l55 88h-74l-31 -49q-98 59 -254 59q-131 0 -217 -38t-129 -112.5t-59 -161.5t-16 -210zM217 512q0 111 11.5 184.5t46 143t109.5 104.5t191 35 q139 0 222 -55l-492 -785q-88 101 -88 373zM352 98l494 785q88 -100 88 -371q0 -111 -11.5 -184.5t-46 -143t-109.5 -104.5t-192 -35q-141 0 -223 53z" />
<glyph unicode="&#xf9;" horiz-adv-x="1097" d="M164 276q0 -154 77.5 -220t258.5 -66q92 0 195.5 24.5t168.5 65.5l29 -80h31v1024h-66v-895q-135 -84 -358 -84q-137 0 -204 48t-67 177v754h-65v-748zM250 1536h100l213 -358h-37z" />
<glyph unicode="&#xfa;" horiz-adv-x="1097" d="M164 276q0 -154 77.5 -220t258.5 -66q92 0 195.5 24.5t168.5 65.5l29 -80h31v1024h-66v-895q-135 -84 -358 -84q-137 0 -204 48t-67 177v754h-65v-748zM526 1178h37l277 358h-101z" />
<glyph unicode="&#xfb;" horiz-adv-x="1097" d="M164 276q0 -154 77.5 -220t258.5 -66q92 0 195.5 24.5t168.5 65.5l29 -80h31v1024h-66v-895q-135 -84 -358 -84q-137 0 -204 48t-67 177v754h-65v-748zM207 1178l297 358h82l297 -358h-49l-289 295l-289 -295h-49z" />
<glyph unicode="&#xfc;" horiz-adv-x="1097" d="M164 276q0 -154 77.5 -220t258.5 -66q92 0 195.5 24.5t168.5 65.5l29 -80h31v1024h-66v-895q-135 -84 -358 -84q-137 0 -204 48t-67 177v754h-65v-748zM299 1413q0 25 17.5 43.5t43.5 18.5q25 0 43.5 -18.5t18.5 -43.5q0 -27 -18.5 -44t-43.5 -17q-27 0 -44 17t-17 44z M668 1413q0 25 17 43.5t44 18.5q25 0 43.5 -18.5t18.5 -43.5q0 -27 -18.5 -44t-43.5 -17q-27 0 -44 17t-17 44z" />
<glyph unicode="&#xfd;" horiz-adv-x="1007" d="M82 1024l393 -1014l-219 -522h70l600 1536h-72l-350 -938l-348 938h-74zM485 1178h37l277 358h-101z" />
<glyph unicode="&#xfe;" horiz-adv-x="1165" d="M174 -512v2048h62v-588q135 86 352 86q123 0 209 -39t131 -112.5t64.5 -162.5t19.5 -208t-19.5 -208t-64.5 -162.5t-131 -112.5t-209 -39q-217 0 -352 86v-588h-62zM236 131q137 -86 352 -86q109 0 183.5 39t111.5 109.5t51 146.5t14 172t-14 172t-51 146.5t-112 109.5 t-183 39q-215 0 -352 -86v-762z" />
<glyph unicode="&#xff;" horiz-adv-x="1007" d="M82 1024l393 -1014l-219 -522h70l600 1536h-72l-350 -938l-348 938h-74zM258 1413q0 25 17.5 43.5t43.5 18.5q25 0 43.5 -18.5t18.5 -43.5q0 -27 -18.5 -44t-43.5 -17q-27 0 -44 17t-17 44zM627 1413q0 25 17.5 43.5t43.5 18.5q25 0 43.5 -18.5t18.5 -43.5 q0 -27 -18.5 -44t-43.5 -17q-27 0 -44 17t-17 44z" />
<glyph unicode="&#x152;" horiz-adv-x="1841" d="M143 768q0 193 25 325t88 237.5t181 155.5t296 50h965v-59h-705v-652h629v-57h-629v-709h705v-59h-965q-178 0 -296 50t-181 155.5t-88 237.5t-25 325zM211 768q0 -375 112.5 -542t419.5 -167h185v1418h-185q-307 0 -419.5 -167t-112.5 -542z" />
<glyph unicode="&#x153;" horiz-adv-x="1888" d="M154 512q0 -123 16 -210t59 -161.5t129 -112.5t217 -38q317 0 392 252q82 -252 391 -252q193 0 325 51v55q-158 -51 -325 -51q-106 0 -179 35t-111 99.5t-53.5 137t-17.5 166.5h738v29q0 102 -6.5 172t-29 141.5t-62.5 113.5t-109.5 68.5t-169.5 26.5q-307 0 -391 -254 q-74 254 -392 254q-131 0 -217 -38t-129 -112.5t-59 -161.5t-16 -210zM217 512q0 111 11.5 184.5t46 143t109.5 104.5t191.5 35t191.5 -35t109.5 -104.5t46 -143t11.5 -184.5t-11.5 -184.5t-46 -143t-109.5 -104.5t-191.5 -35t-191.5 35t-109.5 104.5t-46 143t-11.5 184.5z M997 541q2 94 17.5 166.5t53.5 137t110.5 99.5t179.5 35q84 0 144.5 -25.5t93 -63.5t51 -100.5t22.5 -115.5t4 -133h-676z" />
<glyph unicode="&#x178;" horiz-adv-x="1327" d="M82 1536l549 -907v-629h65v629l549 907h-80l-501 -848l-502 848h-80zM418 1925q0 25 17.5 43.5t43.5 18.5q25 0 43.5 -18.5t18.5 -43.5q0 -27 -18.5 -44t-43.5 -17q-27 0 -44 17t-17 44zM786 1925q0 25 17.5 43.5t44.5 18.5q25 0 43 -18.5t18 -43.5q0 -27 -18.5 -44 t-42.5 -17q-27 0 -44.5 17t-17.5 44z" />
<glyph unicode="&#x2c6;" horiz-adv-x="1105" d="M236 1178l296 358h82l297 -358h-49l-289 295l-288 -295h-49z" />
<glyph unicode="&#x2dc;" horiz-adv-x="1232" d="M266 1315v61q68 -61 152 -61q59 0 144 69.5t165 69.5q98 0 154 -55v-62q-68 61 -152 62q-59 0 -144 -69.5t-165 -69.5q-99 0 -154 55z" />
<glyph unicode="&#x2000;" horiz-adv-x="1034" />
<glyph unicode="&#x2001;" horiz-adv-x="2068" />
<glyph unicode="&#x2002;" horiz-adv-x="1034" />
<glyph unicode="&#x2003;" horiz-adv-x="2068" />
<glyph unicode="&#x2004;" horiz-adv-x="688" />
<glyph unicode="&#x2005;" horiz-adv-x="516" />
<glyph unicode="&#x2006;" horiz-adv-x="344" />
<glyph unicode="&#x2007;" horiz-adv-x="344" />
<glyph unicode="&#x2008;" horiz-adv-x="258" />
<glyph unicode="&#x2009;" horiz-adv-x="413" />
<glyph unicode="&#x200a;" horiz-adv-x="114" />
<glyph unicode="&#x2010;" horiz-adv-x="757" d="M145 670h467v57h-467v-57z" />
<glyph unicode="&#x2011;" horiz-adv-x="757" d="M145 670h467v57h-467v-57z" />
<glyph unicode="&#x2013;" horiz-adv-x="1167" d="M143 670v57h881v-57h-881z" />
<glyph unicode="&#x2014;" horiz-adv-x="1576" d="M143 670v57h1291v-57h-1291z" />
<glyph unicode="&#x2018;" horiz-adv-x="286" d="M16 1024q4 94 22.5 182t44.5 145.5t50.5 101.5t40.5 63l16 20h29q-6 -8 -14 -22.5t-33 -63.5t-36 -104.5t-22.5 -143.5t5.5 -178h-103z" />
<glyph unicode="&#x2019;" horiz-adv-x="286" d="M68 1024q6 8 14 22.5t32.5 63.5t36 104.5t22.5 143.5t-5 178h102q-4 -94 -22.5 -182t-44 -145.5t-50 -101.5t-40.5 -63l-17 -20h-28z" />
<glyph unicode="&#x201a;" horiz-adv-x="286" d="M68 -328q6 8 14 22.5t32.5 63.5t36 104.5t22.5 143.5t-5 178h102q-4 -94 -22.5 -182t-44 -145.5t-50 -101.5t-40.5 -62l-17 -21h-28z" />
<glyph unicode="&#x201c;" horiz-adv-x="512" d="M16 1024q4 94 22.5 182t44.5 145.5t50.5 101.5t40.5 63l16 20h29q-6 -8 -14 -22.5t-33 -63.5t-36 -104.5t-22.5 -143.5t5.5 -178h-103zM242 1024q4 94 22.5 182t44 145.5t50 101.5t40.5 63l17 20h28q-6 -8 -14 -22.5t-32.5 -63.5t-36 -104.5t-22.5 -143.5t5 -178h-102z " />
<glyph unicode="&#x201d;" horiz-adv-x="512" d="M68 1024q6 8 14 22.5t32.5 63.5t36 104.5t22.5 143.5t-5 178h102q-4 -94 -22.5 -182t-44 -145.5t-50 -101.5t-40.5 -63l-17 -20h-28zM293 1024q6 8 14 22.5t33 63.5t36 104.5t22.5 143.5t-5.5 178h103q-4 -94 -22.5 -182t-44.5 -145.5t-50.5 -101.5t-40.5 -63l-16 -20 h-29z" />
<glyph unicode="&#x201e;" horiz-adv-x="512" d="M68 -328q6 8 14 22.5t32.5 63.5t36 104.5t22.5 143.5t-5 178h102q-4 -94 -22.5 -182t-44 -145.5t-50 -101.5t-40.5 -62l-17 -21h-28zM293 -328q6 8 14 22.5t33 63.5t36 104.5t22.5 143.5t-5.5 178h103q-4 -94 -22.5 -182t-44.5 -145.5t-50.5 -101.5t-40.5 -62l-16 -21 h-29z" />
<glyph unicode="&#x2022;" horiz-adv-x="819" d="M133 768q0 115 81 195.5t195.5 80.5t195.5 -80.5t81 -195.5t-81 -195.5t-195.5 -80.5t-195.5 80.5t-81 195.5z" />
<glyph unicode="&#x2026;" horiz-adv-x="2027" d="M276 51q0 25 17.5 43.5t44.5 18.5q25 0 43 -18.5t18 -43.5q0 -27 -18.5 -44t-42.5 -17q-27 0 -44.5 17t-17.5 44zM952 51q0 25 17.5 43.5t44.5 18.5q25 0 43 -18.5t18 -43.5q0 -27 -18.5 -44t-42.5 -17q-27 0 -44.5 17t-17.5 44zM1628 51q0 25 17.5 43.5t44.5 18.5 q25 0 43 -18.5t18 -43.5q0 -27 -18.5 -44t-42.5 -17q-27 0 -44.5 17t-17.5 44z" />
<glyph unicode="&#x202f;" horiz-adv-x="413" />
<glyph unicode="&#x2039;" horiz-adv-x="624" d="M113 489l389 -333v63l-326 293l326 293v61l-389 -331v-46z" />
<glyph unicode="&#x203a;" horiz-adv-x="624" d="M123 156v63l326 293l-326 293v61l389 -331v-46z" />
<glyph unicode="&#x2044;" horiz-adv-x="1884" d="M438 0h-76l1086 1536h76z" />
<glyph unicode="&#x205f;" horiz-adv-x="516" />
<glyph unicode="&#x20ac;" d="M74 594h186q20 -297 143 -450.5t392 -153.5q186 0 311 49v59q-133 -49 -311 -49q-231 0 -339 139.5t-128 405.5h485l23 57h-512q-2 37 -2 117q0 78 2 117h591l23 57h-610q20 266 127.5 405.5t339.5 139.5q178 0 311 -49v59q-125 49 -311 49q-268 0 -391 -153.5 t-144 -450.5h-186v-57h184q-2 -39 -2 -117q0 -80 2 -117h-184v-57z" />
<glyph unicode="&#x2122;" horiz-adv-x="1177" d="M31 1499v37h413v-37h-182v-475h-49v475h-182zM557 1024h43l-4 438l184 -372h39l185 372l-5 -438h41v512h-41l-200 -397l-199 397h-43v-512z" />
</font>
</defs>
</svg>
